<?xml version="1.0" encoding="UTF-8"?>
<svg width="512px" height="512px" viewBox="0 0 512 512" version="1.1" xmlns="http://www.w3.org/2000/svg">
    <title>Soup Icon</title>
    <g stroke="none" stroke-width="1" fill="none" fill-rule="evenodd">
        <circle fill="#FF4757" cx="256" cy="256" r="256"></circle>
        <path d="M128,192 C128,174.327 142.327,160 160,160 L352,160 C369.673,160 384,174.327 384,192 L384,224 L128,224 L128,192 Z" fill="#FFFFFF"></path>
        <path d="M112,240 L400,240 C408.837,240 416,247.163 416,256 C416,264.837 408.837,272 400,272 L400,320 C400,355.346 371.346,384 336,384 L176,384 C140.654,384 112,355.346 112,320 L112,272 C103.163,272 96,264.837 96,256 C96,247.163 103.163,240 112,240 Z" fill="#FFFFFF"></path>
        <path d="M208,128 C208,119.163 215.163,112 224,112 C232.837,112 240,119.163 240,128 L240,160 L208,160 L208,128 Z" fill="#FFFFFF"></path>
        <path d="M272,128 C272,119.163 279.163,112 288,112 C296.837,112 304,119.163 304,128 L304,160 L272,160 L272,128 Z" fill="#FFFFFF"></path>
        <path d="M176,304 C184.837,304 192,296.837 192,288 C192,279.163 184.837,272 176,272 C167.163,272 160,279.163 160,288 C160,296.837 167.163,304 176,304 Z" fill="#FF4757"></path>
        <path d="M240,336 C248.837,336 256,328.837 256,320 C256,311.163 248.837,304 240,304 C231.163,304 224,311.163 224,320 C224,328.837 231.163,336 240,336 Z" fill="#FF4757"></path>
        <path d="M304,304 C312.837,304 320,296.837 320,288 C320,279.163 312.837,272 304,272 C295.163,272 288,279.163 288,288 C288,296.837 295.163,304 304,304 Z" fill="#FF4757"></path>
    </g>
</svg>
